<?xml version="1.0" encoding="UTF-8"?>
<svg id="Layer_2" data-name="Layer 2" xmlns="http://www.w3.org/2000/svg" viewBox="0 0 278.09 193.67">
  <defs>
    <style>
      .cls-1 {
        fill: #fff;
      }
    </style>
  </defs>
  <g id="Layer_1-2" data-name="Layer 1">
    <g>
      <path class="cls-1" d="m31.03,190.95H0V2.71h62.96c9.48.09,18.21,1.51,26.18,4.27,7.97,2.76,14.85,6.68,20.62,11.77,5.77,5.09,10.26,11.25,13.45,18.49,3.19,7.24,4.78,15.38,4.78,24.43s-1.6,16.57-4.78,23.59c-3.19,7.03-7.67,13.04-13.45,18.04-5.78,5.09-12.65,9.01-20.62,11.76-7.97,2.76-16.7,4.14-26.18,4.14h-31.93v71.75Zm31.93-97.09c5.26-.08,9.98-.93,14.16-2.52,4.18-1.59,7.73-3.81,10.67-6.66,2.93-2.84,5.15-6.21,6.66-10.08,1.51-3.88,2.26-8.1,2.26-12.67,0-5-.76-9.54-2.26-13.64-1.51-4.09-3.73-7.65-6.66-10.67-2.93-3.02-6.49-5.34-10.67-6.98-4.18-1.64-8.9-2.5-14.16-2.59h-31.93v65.81h31.93Z"/>
      <path class="cls-1" d="m273.89,151.2c-2.8,9.27-6.83,17-12.09,23.21-5.17,6.38-11.53,11.18-19.07,14.42-7.54,3.23-16.1,4.85-25.66,4.85s-18.02-1.62-25.6-4.85c-7.59-3.23-14.01-8.04-19.26-14.42-5.35-6.21-9.42-13.94-12.22-23.21-2.8-9.26-4.2-19.93-4.2-32v-44.6c0-12.07,1.4-22.73,4.2-32,2.8-9.26,6.83-17.09,12.09-23.46,5.26-6.29,11.66-11.05,19.2-14.29,7.54-3.23,16.05-4.85,25.53-4.85s18.12,1.62,25.66,4.85c7.54,3.23,13.98,8,19.33,14.29,5.17,6.38,9.18,14.2,12.02,23.46,2.84,9.27,4.27,19.93,4.27,32v44.6c0,12.07-1.4,22.73-4.2,32Zm-27.21-88.37c-.35-6.72-1.27-12.54-2.78-17.45-1.51-4.91-3.64-8.92-6.4-12.02-2.41-2.76-5.37-4.83-8.86-6.21-3.49-1.38-7.43-2.07-11.83-2.07-4.74,0-8.92.82-12.54,2.46-3.62,1.64-6.64,4.05-9.05,7.24-2.84,3.62-4.96,8.3-6.33,14.03-1.38,5.73-2.07,12.48-2.07,20.23v39.17l59.86-45.38Zm.26,37.75v-13.96l-59.86,45.12c.43,5.95,1.36,11.21,2.78,15.77,1.42,4.57,3.34,8.36,5.75,11.38,2.41,3.28,5.41,5.73,8.99,7.37,3.58,1.64,7.73,2.46,12.48,2.46s8.75-.8,12.28-2.39c3.53-1.59,6.55-3.94,9.05-7.05,2.84-3.62,4.98-8.36,6.4-14.22,1.42-5.86,2.13-12.75,2.13-20.69v-23.79Z"/>
    </g>
  </g>
</svg>