<?xml version="1.0" encoding="UTF-8"?>
<svg id="Layer_2" data-name="Layer 2" xmlns="http://www.w3.org/2000/svg" viewBox="0 0 870.98 121.09">
  <defs>
    <style>
      .cls-1 {
        fill: #fff;
      }
    </style>
  </defs>
  <g id="Layer_1-2" data-name="Layer 1">
    <g>
      <path class="cls-1" d="m17.44,107.36H0V1.53h35.4c5.33.05,10.24.85,14.72,2.4,4.48,1.55,8.35,3.76,11.59,6.61,3.25,2.86,5.77,6.32,7.56,10.39,1.79,4.07,2.69,8.65,2.69,13.74s-.9,9.32-2.69,13.27c-1.79,3.95-4.31,7.33-7.56,10.14-3.25,2.86-7.11,5.06-11.59,6.61-4.48,1.55-9.39,2.33-14.72,2.33h-17.95v40.34Zm17.95-54.59c2.96-.05,5.61-.52,7.96-1.42,2.35-.9,4.35-2.14,6-3.74s2.9-3.49,3.74-5.67c.85-2.18,1.27-4.55,1.27-7.12,0-2.81-.42-5.37-1.27-7.67-.85-2.3-2.1-4.3-3.74-6-1.65-1.7-3.65-3-6-3.93-2.35-.92-5-1.4-7.96-1.45h-17.95v37h17.95Z"/>
      <path class="cls-1" d="m153.98,85c-1.58,5.21-3.84,9.56-6.8,13.05-2.91,3.59-6.48,6.29-10.72,8.1-4.24,1.82-9.05,2.73-14.43,2.73s-10.13-.91-14.39-2.73c-4.26-1.82-7.88-4.52-10.83-8.1-3.01-3.49-5.29-7.84-6.87-13.05-1.58-5.21-2.36-11.2-2.36-17.99v-25.08c0-6.78.79-12.78,2.36-17.99,1.57-5.21,3.84-9.61,6.8-13.19,2.96-3.54,6.55-6.21,10.79-8.03,4.24-1.82,9.02-2.73,14.36-2.73s10.19.91,14.43,2.73c4.24,1.82,7.86,4.5,10.87,8.03,2.91,3.59,5.16,7.98,6.76,13.19,1.6,5.21,2.4,11.21,2.4,17.99v25.08c0,6.78-.79,12.78-2.36,17.99Zm-15.3-49.68c-.19-3.78-.72-7.05-1.56-9.81-.85-2.76-2.05-5.02-3.6-6.76-1.36-1.55-3.02-2.71-4.98-3.49-1.96-.77-4.18-1.16-6.65-1.16-2.67,0-5.02.46-7.05,1.38-2.04.92-3.73,2.28-5.09,4.07-1.6,2.04-2.79,4.66-3.56,7.89-.78,3.22-1.16,7.01-1.16,11.38v22.02l33.65-25.51Zm.15,21.22v-7.85l-33.65,25.37c.24,3.34.76,6.3,1.56,8.87.8,2.57,1.88,4.7,3.23,6.4,1.36,1.84,3.04,3.22,5.05,4.14,2.01.92,4.35,1.38,7.01,1.38s4.92-.45,6.9-1.34c1.99-.9,3.68-2.22,5.09-3.96,1.6-2.04,2.8-4.7,3.6-8,.8-3.29,1.2-7.17,1.2-11.63v-13.37Z"/>
      <path class="cls-1" d="m242.33,1.53v14.46h-22.61v76.97h22.61v14.39h-62.36v-14.39h22.1V15.99h-22.1V1.53h62.36Z"/>
      <path class="cls-1" d="m317.49,107.36l-34.38-72.83-.07,72.83h-17.66V1.53h17.74l34.16,72.54.15-72.54h17.59v105.83h-17.52Z"/>
      <path class="cls-1" d="m398.46,15.99v91.36h-17.37V15.99h-32.42V1.53h82.42v14.46h-32.64Z"/>
      <path class="cls-1" d="m445.49,121.09v-13.74h66.43v13.74h-66.43Z"/>
      <path class="cls-1" d="m605.39,92.96v14.39h-74.28l-.07-11.63,51.9-79.74h-51.39V1.53h72.18l.15,11.34-51.97,80.1h53.5Z"/>
      <path class="cls-1" d="m642.46,59.89v33.07h51.1v14.39h-68.61V1.53h68.25v14.46h-50.73v29.8h43.76v14.1h-43.76Z"/>
      <path class="cls-1" d="m730.99,66.29v41.07h-17.44V1.53h33.58c5.47.05,10.51.75,15.12,2.11,4.6,1.36,8.58,3.34,11.92,5.96,3.29,2.67,5.86,5.97,7.71,9.92,1.84,3.95,2.76,8.57,2.76,13.85,0,3.63-.47,6.93-1.42,9.89-.95,2.96-2.27,5.62-3.96,8-1.7,2.38-3.73,4.46-6.11,6.25-2.37,1.79-5.01,3.34-7.92,4.65l22.61,44.27v.94h-18.68l-20.28-41.07h-17.88Zm16.35-14.25c3.1-.05,5.9-.52,8.39-1.42,2.5-.9,4.62-2.19,6.36-3.89,1.55-1.45,2.76-3.25,3.63-5.38.87-2.13,1.31-4.55,1.31-7.27,0-3.05-.47-5.73-1.42-8.03-.95-2.3-2.34-4.23-4.18-5.78-1.7-1.45-3.76-2.56-6.18-3.31-2.42-.75-5.14-1.15-8.14-1.2h-16.14v36.27h16.35Z"/>
      <path class="cls-1" d="m868.62,85c-1.58,5.21-3.84,9.56-6.8,13.05-2.91,3.59-6.48,6.29-10.72,8.1-4.24,1.82-9.05,2.73-14.43,2.73s-10.13-.91-14.39-2.73c-4.26-1.82-7.88-4.52-10.83-8.1-3-3.49-5.29-7.84-6.87-13.05-1.58-5.21-2.36-11.2-2.36-17.99v-25.08c0-6.78.79-12.78,2.36-17.99,1.57-5.21,3.84-9.61,6.8-13.19,2.96-3.54,6.55-6.21,10.79-8.03,4.24-1.82,9.02-2.73,14.36-2.73s10.19.91,14.43,2.73c4.24,1.82,7.86,4.5,10.87,8.03,2.91,3.59,5.16,7.98,6.76,13.19,1.6,5.21,2.4,11.21,2.4,17.99v25.08c0,6.78-.79,12.78-2.36,17.99Zm-15.3-49.68c-.19-3.78-.72-7.05-1.56-9.81-.85-2.76-2.05-5.02-3.6-6.76-1.36-1.55-3.02-2.71-4.98-3.49-1.96-.77-4.18-1.16-6.65-1.16-2.67,0-5.02.46-7.05,1.38-2.04.92-3.73,2.28-5.09,4.07-1.6,2.04-2.79,4.66-3.56,7.89-.78,3.22-1.16,7.01-1.16,11.38v22.02l33.65-25.51Zm.15,21.22v-7.85l-33.65,25.37c.24,3.34.76,6.3,1.56,8.87.8,2.57,1.88,4.7,3.24,6.4,1.36,1.84,3.04,3.22,5.05,4.14,2.01.92,4.35,1.38,7.01,1.38s4.92-.45,6.91-1.34c1.99-.9,3.68-2.22,5.09-3.96,1.6-2.04,2.8-4.7,3.6-8,.8-3.29,1.2-7.17,1.2-11.63v-13.37Z"/>
    </g>
  </g>
</svg>